<?xml version="1.0" encoding="utf-8"?>
<!-- Generator: Adobe Illustrator 26.4.0, SVG Export Plug-In . SVG Version: 6.00 Build 0)  -->
<svg version="1.1" id="Ebene_1" xmlns="http://www.w3.org/2000/svg" xmlns:xlink="http://www.w3.org/1999/xlink" x="0px" y="0px"
	 viewBox="0 0 356.3 240.2" style="enable-background:new 0 0 356.3 240.2;" xml:space="preserve">
<style type="text/css">
	.st0{fill:#C90023;}
	.st1{fill:#58595B;}
</style>
<path class="st0" d="M60.6,204.9l-1.1,2.3c-0.1,0.1-0.2,0.2-0.3,0.2c-0.1,0-0.1,0-0.2-0.1l-1-0.5c-1-0.5-2.1-0.8-3-0.8
	c-1.8,0-2.8,0.9-2.8,2.2c0,1.1,0.5,1.7,2.8,2.8l1.7,0.8c3.1,1.6,4.5,3.5,4.5,6.3c0,3.9-2.7,6.4-6.8,6.4c-1.9,0-4.6-0.6-6-1.4
	c-0.2-0.1-0.3-0.3-0.3-0.4c0-0.1,0-0.2,0.1-0.3l1-2.7c0.1-0.2,0.2-0.3,0.3-0.3c0.1,0,0.2,0,0.3,0.1c1.8,1,3.4,1.5,4.7,1.5
	c1.7,0,2.8-0.9,2.8-2.5c0-1.7-0.4-2.1-4.2-4c-1.8-0.9-2.7-1.5-3.4-2.2c-1-1-1.4-2.2-1.4-3.8c0-3.6,2.6-5.9,6.8-5.9
	c1.9,0,4.1,0.6,5.6,1.5c0.2,0.2,0.3,0.3,0.3,0.4C60.7,204.7,60.7,204.7,60.6,204.9z"/>
<path class="st0" d="M71.4,202.8c0.3,0,0.3,0.1,0.5,0.4l2.5,5.3c0.4,0.8,0.6,1.4,1,2.4l0.3,0.9c0.5-1.6,0.7-2.3,1.4-3.6l2.4-5
	c0.2-0.4,0.3-0.4,0.4-0.4c0,0,0.1,0,0.2,0c0,0,0.1,0,0.3,0l3,0c0.4,0.1,0.5,0.2,0.5,0.4c0,0.1,0,0.2-0.2,0.4l-6.1,11.9v8
	c0,0.6-0.1,0.6-0.6,0.6H74c-0.6,0-0.6-0.1-0.6-0.6v-8.1l-6.2-11.9c-0.1-0.1-0.1-0.2-0.1-0.2c0-0.1,0-0.2,0-0.2
	c0-0.2,0.2-0.3,0.6-0.4"/>
<path class="st0" d="M102.1,204.4l-1.1,2.3c-0.1,0.1-0.2,0.2-0.3,0.2c-0.1,0-0.1,0-0.2-0.1l-1-0.5c-1-0.5-2.1-0.8-3-0.8
	c-1.8,0-2.8,0.9-2.8,2.2c0,1.1,0.5,1.7,2.8,2.8l1.7,0.8c3.1,1.6,4.5,3.5,4.5,6.3c0,3.9-2.7,6.4-6.8,6.4c-1.9,0-4.6-0.6-6-1.4
	c-0.2-0.1-0.3-0.3-0.3-0.4c0-0.1,0-0.2,0.1-0.3l1-2.7c0.1-0.2,0.2-0.3,0.3-0.3c0.1,0,0.2,0,0.3,0.1c1.8,1,3.4,1.5,4.7,1.5
	c1.7,0,2.8-0.9,2.8-2.5c0-1.7-0.4-2.1-4.1-4c-1.8-0.9-2.7-1.5-3.4-2.2c-1-1-1.4-2.2-1.4-3.8c0-3.6,2.6-5.9,6.7-5.9
	c1.9,0,4.1,0.6,5.6,1.5c0.2,0.2,0.3,0.3,0.3,0.4C102.2,204.3,102.2,204.3,102.1,204.4z"/>
<path class="st0" d="M123.2,206.2c-0.1,0.4-0.2,0.5-0.7,0.5H118v16.8c0,0.6-0.1,0.6-0.6,0.6h-3c-0.6,0-0.6-0.1-0.6-0.6v-16.8h-3.9
	c-0.6,0-0.7-0.1-0.7-0.6v-2.4c0-0.5,0.1-0.6,0.7-0.6h12.7c0.5,0,0.6,0.1,0.6,0.4"/>
<path class="st0" d="M135.6,206.4v5.1h5.1c0.5,0,0.6,0.1,0.6,0.6v2.1c0,0.5-0.1,0.6-0.6,0.6h-5.1v6h6.4c0.6,0,0.6,0.1,0.6,0.6v2.1
	c0,0.6-0.1,0.6-0.6,0.6h-10c-0.6,0-0.6-0.1-0.6-0.6v-19.9c0-0.5,0.1-0.6,0.6-0.6h10.3c0.5,0,0.6,0.1,0.6,0.4c0,0.1,0,0.2-0.1,0.4
	l-0.6,2.1c-0.1,0.4-0.3,0.5-0.7,0.5L135.6,206.4L135.6,206.4z"/>
<path class="st0" d="M160.2,214.4l0.3-0.9c0.3-1.1,0.5-1.9,0.8-2.7l2.6-7.7c0.2-0.5,0.2-0.5,0.7-0.5h2.9c0.5,0,0.6,0.1,0.6,0.6
	l1,19.8v0.2c0,0.4-0.2,0.4-0.6,0.4h-2.8c-0.6,0-0.6-0.1-0.7-0.6l-0.2-10.9c0-0.3,0-0.7,0-1.1c0-0.3,0-0.7,0-1.1v-1l0-1.2
	c-0.5,2.2-0.8,3.4-1.1,4.5l-2,6.3c-0.2,0.5-0.2,0.5-0.7,0.5h-1.9c-0.5,0-0.5,0-0.7-0.5l-1.7-6c-0.2-0.8-0.7-2.7-1.1-4.7l0,1.3v1.2
	c0,0.8,0,1.3,0,1.4c0,0.2,0,0.5,0,1l-0.3,10.5c0,0.6-0.1,0.6-0.6,0.6h-2.5c-0.5,0-0.6-0.1-0.6-0.4c0,0,0-0.1,0-0.2l0.9-19.9
	c0-0.5,0.1-0.6,0.6-0.6h3c0.5,0,0.5,0.1,0.7,0.5l2.5,7.8C159.5,211.4,159.9,212.8,160.2,214.4z"/>
<path class="st0" d="M190.5,206.3c-0.1,0.4-0.2,0.5-0.7,0.5h-4.5v16.8c0,0.6-0.1,0.6-0.6,0.6h-3c-0.6,0-0.6-0.1-0.6-0.6v-16.8h-3.9
	c-0.6,0-0.7-0.1-0.7-0.6v-2.4c0-0.5,0.1-0.6,0.7-0.6h12.7c0.5,0,0.6,0.1,0.6,0.4"/>
<path class="st0" d="M210.1,205.9c-0.1,0.4-0.3,0.5-0.7,0.5h-6.6v5.1h5.1c0.5,0,0.6,0.1,0.6,0.6v2.1c0,0.5-0.1,0.6-0.6,0.6h-5.1v6h7
	c0.6,0,0.6,0.1,0.6,0.6v2.1c0,0.6-0.1,0.6-0.6,0.6h-10.7c-0.6,0-0.6-0.1-0.6-0.6v-19.9c0-0.5,0.1-0.6,0.6-0.6h10.3
	c0.5,0,0.6,0.1,0.6,0.4"/>
<path class="st0" d="M231.5,204.7l-1.3,2.3c-0.1,0.2-0.2,0.2-0.3,0.2c-0.1,0-0.2,0-0.3-0.1c-0.1-0.1-0.3-0.2-0.6-0.5
	c-0.9-0.6-1.7-1-2.5-1c-2.4,0-3.6,2.2-3.6,6.6c0,5.8,1.3,8.4,4,8.4c1,0,1.7-0.3,2.8-1.1c0.1-0.1,0.2-0.1,0.3-0.1
	c0.1,0,0.2,0.1,0.3,0.3l1.2,2.1c0,0.1,0.1,0.2,0.1,0.3c0,0.3-0.2,0.6-0.9,0.9c-1.3,0.8-2.6,1.2-4.3,1.2c-5.2,0-8-4-8-11.3
	c0-3.9,0.8-6.5,2.4-8.4c1.4-1.6,3.2-2.4,5.3-2.4c1.7,0,3.5,0.6,4.9,1.7c0.2,0.2,0.4,0.4,0.4,0.6
	C231.5,204.5,231.5,204.6,231.5,204.7z"/>
<path class="st0" d="M242.4,211.7h5.7v-8c0-0.5,0.1-0.6,0.6-0.6h2.9c0.6,0,0.6,0.1,0.6,0.6v19.9c0,0.6-0.1,0.6-0.6,0.6h-2.9
	c-0.6,0-0.6-0.1-0.6-0.6v-8.7h-5.7v8.7c0,0.6-0.1,0.6-0.6,0.6h-3c-0.6,0-0.6-0.1-0.6-0.6v-19.9c0-0.5,0.1-0.6,0.6-0.6h3
	c0.5,0,0.6,0.1,0.6,0.6V211.7z"/>
<path class="st0" d="M272.7,217.4l0-1.1c0-1,0-1.7,0-2.8v-9.8c0-0.5,0.1-0.6,0.6-0.6h2.3c0.6,0,0.6,0.1,0.6,0.6v19.9
	c0,0.6-0.1,0.6-0.6,0.6h-2c-0.5,0-0.6-0.1-0.9-0.6l-5.3-10c-1.1-2.1-1.4-2.8-2-4.3l0,1c0,0.9,0.1,1.3,0.1,2.1v0.6v10.6
	c0,0.6-0.1,0.6-0.6,0.6h-2.3c-0.6,0-0.6-0.1-0.6-0.6v-19.9c0-0.5,0.1-0.6,0.6-0.6h2.4c0.5,0,0.6,0,0.9,0.5l4.9,9.1
	C271.4,213.9,272.1,215.6,272.7,217.4z"/>
<path class="st0" d="M288.6,203.1h-3c-0.6,0-0.6,0.1-0.6,0.6v2.4l0,0v15.1l0,2.4c0,0.6,0.1,0.6,0.6,0.6h2.9c0.6,0,0.6-0.1,0.6-0.6
	l0.1-19.9C289.2,203.2,289.2,203.1,288.6,203.1z"/>
<path class="st0" d="M301.8,212.4l6.4-9c0.2-0.3,0.3-0.3,0.5-0.3c0.1,0,3.6,0,3.6,0c0.3,0.2,0.4,0.3,0.4,0.4c0,0.1-0.1,0.3-0.2,0.4
	l-7.1,9.4l7.9,9.9c0.2,0.2,0.2,0.3,0.2,0.4c0,0.2,0,0.3-0.4,0.4c0,0-4.1,0-4.1,0h0c-0.1,0-0.2-0.1-0.4-0.4l-6.8-8.9v8.6
	c0,0.6-0.1,0.6-0.6,0.6h-3c-0.6,0-0.6-0.1-0.6-0.6v-19.9c0-0.5,0.1-0.6,0.6-0.6h3c0.5,0,0.6,0.1,0.6,0.6L301.8,212.4L301.8,212.4z"
	/>
<path class="st1" d="M62.6,122.3H31.3c-14.9,0-23.1,7.3-23.1,20.4c0,8.7,4,19.2,22.8,19.2h14.6c5.1,0,5.5,2,5.5,4.1
	c0,1.3,0,3.8-6.3,3.8H10.4v15.6h35c19.1,0,23.1-10.8,23.1-19.8c0-6.7-1.9-11.6-5.6-14.6c-3.5-2.9-8.9-4.4-16.4-4.4H30.1
	c-4.1,0-4.5-1.5-4.5-3.5c0-3.2,1-5.2,6.2-5.2h34v-15.6H62.6z"/>
<path class="st1" d="M119.3,122.3h-17.1c-13.5,0-29.6,5.6-29.6,32.5c0,11.5,3.2,19.6,9.7,24.8c2.9,2.4,6.1,4,9.6,4.8
	c2.1,0.6,5.3,0.9,10,0.9h20.8v-15.7h-21.1c-4.3,0.1-7.2-0.8-8.5-2.5c-1.2-1.4-2.5-4.6-2.5-11.8c0-6.7,0.9-11.5,2.7-14.2
	c1.7-2.4,4.3-3.6,8.3-3.6h21.1v-15.2L119.3,122.3L119.3,122.3z"/>
<path class="st1" d="M176.7,122.3h-13.6c0,0,0,18.6,0,23.5c-4.1,0-13.9,0-18.1,0c0-4.8,0-23.5,0-23.5h-17v63h17c0,0,0-19.2,0-24.1
	c4.1,0,13.9,0,18.1,0c0,4.9,0,24.1,0,24.1H180v-63C180,122.3,176.7,122.3,176.7,122.3z"/>
<path class="st1" d="M242.4,122.3h-13.5V160c0,4.3-0.7,7.2-2.2,8.8c-1.4,1.5-4.4,2.3-8.7,2.3c-4.4,0-7.4-0.8-8.8-2.3
	c-1-1.1-2.2-3.4-2.2-8.9v-37.7h-16.7v37.4c0,4.6,0.2,7.7,0.6,9.8c0.6,3.2,1.7,5.8,3.3,7.6c4.7,5.7,12.5,8.6,23.7,8.7
	c11.1-0.1,18.8-2.9,23.6-8.7c2.7-3.1,4.1-8.8,4.1-17.3v-37.4L242.4,122.3L242.4,122.3z"/>
<path class="st1" d="M268.9,122.3h-13.4v36.9c0,4.8,0.3,8,1,10.5c0.7,3.1,2.4,6.2,4.9,8.8c2.6,3,5.9,5,9.6,5.9c2.5,0.7,6.1,1,11,1
	h8.5V170h-8.2c-4.5,0-7.4-0.9-8.9-2.5l-0.1-0.2l-0.2-0.1c-0.2-0.2-0.6-0.9-0.8-2.3c0,0-0.2-5.7-0.2-5.7v-36.9L268.9,122.3
	L268.9,122.3z M268.7,172c0,0,0-0.1-0.1-0.1c-0.1-0.1-0.1-0.1-0.2-0.2L268.7,172z"/>
<path class="st1" d="M345.1,122.3h-50.7v15.8c0,0,21.3,0,30.4,0c-7.3,8-30.5,33.2-30.5,33.2v14h54.1v-16.2c0,0-21,0-30,0
	c7.2-8,30-33.2,30-33.2v-13.6L345.1,122.3L345.1,122.3z"/>
<path class="st0" d="M299.3,92.7H59.4c-1.8,4.4-3.4,8.9-4.8,13.5h249.4C302.8,101.6,301.2,97.1,299.3,92.7z"/>
<path class="st0" d="M290.4,75.2c-1.2-1.9-2.4-3.8-3.7-5.7H72.1c-1.3,1.9-2.5,3.8-3.7,5.7c-0.9,1.5-1.8,3-2.6,4.5H293
	C292.2,78.1,291.3,76.6,290.4,75.2z"/>
<path class="st0" d="M271.5,51H87.3c-2,2.1-4,4.2-5.9,6.4h196C275.5,55.2,273.5,53.1,271.5,51z"/>
<path class="st0" d="M254.2,36.5H104.6c-1.9,1.4-3.8,2.8-5.7,4.2h161C258,39.2,256.2,37.8,254.2,36.5z"/>
<path class="st0" d="M233.3,24.4H125.5c-1.9,0.9-3.7,1.7-5.5,2.7h118.9C237,26.2,235.2,25.3,233.3,24.4z"/>
<path class="st0" d="M202.4,14.8h-45.9c-3,0.5-5.9,1.2-8.8,1.9h63.5C208.3,15.9,205.3,15.3,202.4,14.8z"/>
</svg>
