<?xml version="1.0" encoding="UTF-8" standalone="no" ?>
<!DOCTYPE svg PUBLIC "-//W3C//DTD SVG 1.1//EN" "http://www.w3.org/Graphics/SVG/1.1/DTD/svg11.dtd">
<svg xmlns="http://www.w3.org/2000/svg" xmlns:xlink="http://www.w3.org/1999/xlink" version="1.1" width="1080" height="1080" viewBox="0 0 1080 1080" xml:space="preserve">
<desc>Created with Fabric.js 4.2.0</desc>
<defs>
</defs>
<g transform="matrix(1 0 0 1 540 540)" id="89b1eb7a-94df-44b6-b1fd-c503a49b722d"  >
<rect style="stroke: none; stroke-width: 1; stroke-dasharray: none; stroke-linecap: butt; stroke-dashoffset: 0; stroke-linejoin: miter; stroke-miterlimit: 4; fill: rgb(255,255,255); fill-opacity: 0; fill-rule: nonzero; opacity: 1;" vector-effect="non-scaling-stroke"  x="-540" y="-540" rx="0" ry="0" width="1080" height="1080" />
</g>
<g transform="matrix(Infinity NaN NaN Infinity 0 0)" id="e426d228-e03b-4687-a8f2-5125e62fb7c2"  >
</g>
<g transform="matrix(4.23 0 0 4.23 540 540)"  >
<g style="" vector-effect="non-scaling-stroke"   >
		<g transform="matrix(1 0 0 1 -90.31 68.5)"  >
<path style="stroke: none; stroke-width: 1; stroke-dasharray: none; stroke-linecap: butt; stroke-dashoffset: 0; stroke-linejoin: miter; stroke-miterlimit: 4; fill: rgb(26,26,24); fill-rule: nonzero; opacity: 1;" vector-effect="non-scaling-stroke"  transform=" translate(-34.28, -146.13)" d="M 38.74 139.73 L 37.93 141.44 C 37.88 141.53 37.79 141.6 37.72 141.6 C 37.67 141.6 37.629999999999995 141.57999999999998 37.56 141.54999999999998 L 36.85 141.17999999999998 C 36.11 140.80999999999997 35.35 140.59999999999997 34.63 140.59999999999997 C 33.34 140.59999999999997 32.57 141.22999999999996 32.57 142.23999999999995 C 32.57 143.06999999999996 32.94 143.45999999999995 34.58 144.26999999999995 L 35.809999999999995 144.86999999999995 C 38.099999999999994 146.02999999999994 39.06999999999999 147.38999999999996 39.06999999999999 149.46999999999994 C 39.06999999999999 152.28999999999994 37.099999999999994 154.13999999999993 34.129999999999995 154.13999999999993 C 32.769999999999996 154.13999999999993 30.779999999999994 153.67999999999992 29.739999999999995 153.09999999999994 C 29.579999999999995 153.02999999999994 29.489999999999995 152.90999999999994 29.489999999999995 152.79999999999993 C 29.489999999999995 152.75999999999993 29.509999999999994 152.65999999999994 29.559999999999995 152.56999999999994 L 30.269999999999996 150.62999999999994 C 30.319999999999997 150.50999999999993 30.389999999999997 150.44999999999993 30.479999999999997 150.44999999999993 C 30.529999999999998 150.44999999999993 30.619999999999997 150.46999999999994 30.689999999999998 150.51999999999992 C 32.01 151.23999999999992 33.16 151.57999999999993 34.129999999999995 151.57999999999993 C 35.4 151.57999999999993 36.13999999999999 150.90999999999994 36.13999999999999 149.72999999999993 C 36.13999999999999 148.47999999999993 35.81999999999999 148.17999999999992 33.10999999999999 146.81999999999994 C 31.769999999999992 146.14999999999995 31.119999999999994 145.72999999999993 30.639999999999993 145.19999999999993 C 29.919999999999995 144.45999999999992 29.599999999999994 143.60999999999993 29.599999999999994 142.44999999999993 C 29.599999999999994 139.78999999999994 31.489999999999995 138.12999999999994 34.519999999999996 138.12999999999994 C 35.92999999999999 138.12999999999994 37.529999999999994 138.54999999999993 38.589999999999996 139.21999999999994 C 38.74999999999999 139.32999999999996 38.8 139.40999999999994 38.8 139.53999999999994 C 38.78 139.62 38.78 139.62 38.74 139.73 z" stroke-linecap="round" />
</g>
		<g transform="matrix(1 0 0 1 -75.05 68.41)"  >
<path style="stroke: none; stroke-width: 1; stroke-dasharray: none; stroke-linecap: butt; stroke-dashoffset: 0; stroke-linejoin: miter; stroke-miterlimit: 4; fill: rgb(26,26,24); fill-rule: nonzero; opacity: 1;" vector-effect="non-scaling-stroke"  transform=" translate(-49.54, -146.04)" d="M 46.61 138.23 C 46.79 138.23 46.82 138.26999999999998 46.96 138.54999999999998 L 48.76 142.39 C 49.04 142.95 49.22 143.41 49.47 144.17 L 49.699999999999996 144.83999999999997 C 50.05 143.64 50.23 143.17999999999998 50.69 142.20999999999998 L 52.419999999999995 138.55999999999997 C 52.559999999999995 138.27999999999997 52.60999999999999 138.23999999999998 52.739999999999995 138.23999999999998 C 52.76 138.23999999999998 52.809999999999995 138.23999999999998 52.879999999999995 138.23999999999998 C 52.9 138.26 52.989999999999995 138.23999999999998 53.089999999999996 138.26 L 55.26 138.28 C 55.54 138.35 55.65 138.42 55.65 138.58 C 55.65 138.64000000000001 55.629999999999995 138.72 55.53 138.88000000000002 L 51.11 147.54000000000002 L 51.11 153.39000000000001 C 51.11 153.8 51.06 153.85000000000002 50.65 153.85000000000002 L 48.5 153.85000000000002 C 48.08 153.85000000000002 48.04 153.8 48.04 153.39000000000001 L 48.04 147.52 L 43.54 138.84 C 43.49 138.77 43.47 138.70000000000002 43.449999999999996 138.70000000000002 C 43.42999999999999 138.65 43.42999999999999 138.58 43.42999999999999 138.54000000000002 C 43.42999999999999 138.38000000000002 43.53999999999999 138.31000000000003 43.83999999999999 138.26000000000002" stroke-linecap="round" />
</g>
		<g transform="matrix(1 0 0 1 -60.04 68.2)"  >
<path style="stroke: none; stroke-width: 1; stroke-dasharray: none; stroke-linecap: butt; stroke-dashoffset: 0; stroke-linejoin: miter; stroke-miterlimit: 4; fill: rgb(26,26,24); fill-rule: nonzero; opacity: 1;" vector-effect="non-scaling-stroke"  transform=" translate(-64.54, -145.83)" d="M 69.01 139.43 L 68.2 141.14000000000001 C 68.16 141.23000000000002 68.06 141.3 67.99000000000001 141.3 C 67.95 141.3 67.9 141.28 67.83000000000001 141.25 L 67.11000000000001 140.88 C 66.37000000000002 140.51 65.61000000000001 140.29999999999998 64.89000000000001 140.29999999999998 C 63.600000000000016 140.29999999999998 62.83000000000001 140.92999999999998 62.83000000000001 141.93999999999997 C 62.83000000000001 142.76999999999998 63.20000000000001 143.16999999999996 64.84000000000002 143.96999999999997 L 66.07000000000002 144.56999999999996 C 68.36000000000003 145.71999999999997 69.33000000000003 147.08999999999997 69.33000000000003 149.16999999999996 C 69.33000000000003 151.98999999999995 67.37000000000003 153.83999999999995 64.39000000000003 153.83999999999995 C 63.03000000000003 153.83999999999995 61.04000000000003 153.37999999999994 60.00000000000003 152.79999999999995 C 59.84000000000003 152.72999999999996 59.75000000000003 152.60999999999996 59.75000000000003 152.49999999999994 C 59.75000000000003 152.44999999999993 59.78000000000003 152.35999999999996 59.82000000000003 152.26999999999995 L 60.54000000000003 150.32999999999996 C 60.590000000000025 150.21999999999994 60.65000000000003 150.14999999999995 60.75000000000003 150.14999999999995 C 60.800000000000026 150.14999999999995 60.89000000000003 150.16999999999996 60.96000000000003 150.21999999999994 C 62.28000000000003 150.93999999999994 63.43000000000003 151.27999999999994 64.40000000000003 151.27999999999994 C 65.67000000000003 151.27999999999994 66.41000000000004 150.60999999999996 66.41000000000004 149.42999999999995 C 66.41000000000004 148.17999999999995 66.09000000000005 147.87999999999994 63.38000000000004 146.51999999999995 C 62.040000000000035 145.84999999999997 61.390000000000036 145.43999999999994 60.91000000000004 144.89999999999995 C 60.20000000000004 144.15999999999994 59.87000000000004 143.29999999999995 59.87000000000004 142.14999999999995 C 59.87000000000004 139.48999999999995 61.76000000000004 137.82999999999996 64.79000000000003 137.82999999999996 C 66.20000000000003 137.82999999999996 67.79000000000003 138.24999999999994 68.86000000000004 138.91999999999996 C 69.02000000000004 139.02999999999997 69.07000000000004 139.10999999999996 69.07000000000004 139.23999999999995 C 69.06 139.31 69.06 139.31 69.01 139.43 z" stroke-linecap="round" />
</g>
		<g transform="matrix(1 0 0 1 -45.28 68.52)"  >
<path style="stroke: none; stroke-width: 1; stroke-dasharray: none; stroke-linecap: butt; stroke-dashoffset: 0; stroke-linejoin: miter; stroke-miterlimit: 4; fill: rgb(26,26,24); fill-rule: nonzero; opacity: 1;" vector-effect="non-scaling-stroke"  transform=" translate(-79.3, -146.15)" d="M 84.38 140.75 C 84.31 141.07 84.24 141.12 83.89 141.12 L 80.61 141.12 L 80.61 153.39000000000001 C 80.61 153.8 80.57 153.85000000000002 80.15 153.85000000000002 L 77.96000000000001 153.85000000000002 C 77.54 153.85000000000002 77.50000000000001 153.8 77.50000000000001 153.39000000000001 L 77.50000000000001 141.12 L 74.68000000000002 141.12 C 74.26000000000002 141.12 74.19000000000003 141.08 74.19000000000003 140.66 L 74.19000000000003 138.91 C 74.19000000000003 138.52 74.26000000000002 138.45 74.68000000000002 138.45 L 83.95000000000002 138.45 C 84.29000000000002 138.45 84.41000000000001 138.51999999999998 84.41000000000001 138.7" stroke-linecap="round" />
</g>
		<g transform="matrix(1 0 0 1 -30.05 68.52)"  >
<path style="stroke: none; stroke-width: 1; stroke-dasharray: none; stroke-linecap: butt; stroke-dashoffset: 0; stroke-linejoin: miter; stroke-miterlimit: 4; fill: rgb(26,26,24); fill-rule: nonzero; opacity: 1;" vector-effect="non-scaling-stroke"  transform=" translate(-94.53, -146.15)" d="M 93.42 140.89 L 93.42 144.58999999999997 L 97.16 144.58999999999997 C 97.55 144.58999999999997 97.61999999999999 144.62999999999997 97.61999999999999 145.04999999999998 L 97.61999999999999 146.57 C 97.61999999999999 146.95999999999998 97.55 147.03 97.16 147.03 L 93.42 147.03 L 93.42 151.4 L 98.11 151.4 C 98.52 151.4 98.57 151.47 98.57 151.86 L 98.57 153.39000000000001 C 98.57 153.8 98.52 153.85000000000002 98.11 153.85000000000002 L 90.78999999999999 153.85000000000002 C 90.36999999999999 153.85000000000002 90.33 153.8 90.33 153.39000000000001 L 90.33 138.9 C 90.33 138.51000000000002 90.38 138.44 90.78999999999999 138.44 L 98.3 138.44 C 98.64999999999999 138.44 98.74 138.51 98.74 138.69 C 98.74 138.76 98.74 138.82999999999998 98.69 138.97 L 98.25 140.51 C 98.18 140.81 98.07 140.88 97.76 140.88 L 93.42 140.88 z" stroke-linecap="round" />
</g>
		<g transform="matrix(1 0 0 1 -13.08 68.16)"  >
<path style="stroke: none; stroke-width: 1; stroke-dasharray: none; stroke-linecap: butt; stroke-dashoffset: 0; stroke-linejoin: miter; stroke-miterlimit: 4; fill: rgb(26,26,24); fill-rule: nonzero; opacity: 1;" vector-effect="non-scaling-stroke"  transform=" translate(-111.5, -145.79)" d="M 111.38 146.7 L 111.57 146.03 C 111.77999999999999 145.24 111.94 144.66 112.14999999999999 144.09 L 114.05 138.45000000000002 C 114.17 138.10000000000002 114.19 138.08 114.56 138.08 L 116.68 138.08 C 117.05000000000001 138.08 117.12 138.15 117.14 138.54000000000002 L 117.86 153.00000000000003 L 117.86 153.16000000000003 C 117.86 153.41000000000003 117.75 153.48000000000002 117.42 153.48000000000002 L 115.39 153.48000000000002 C 114.98 153.48000000000002 114.93 153.41000000000003 114.91 153.02 L 114.77 145.10000000000002 C 114.75 144.85000000000002 114.75 144.59000000000003 114.75 144.32000000000002 C 114.75 144.11 114.75 143.83 114.77 143.51000000000002 L 114.77 142.77 L 114.78999999999999 141.87 C 114.41999999999999 143.46 114.19 144.34 113.96 145.13 L 112.5 149.73 C 112.39 150.07999999999998 112.36 150.1 111.99 150.1 L 110.63 150.1 C 110.25999999999999 150.1 110.24 150.07999999999998 110.11999999999999 149.71 L 108.86999999999999 145.34 C 108.71 144.79 108.35999999999999 143.38 108.03999999999999 141.88 L 108.05999999999999 142.85 L 108.05999999999999 143.7 C 108.05999999999999 144.29999999999998 108.05999999999999 144.63 108.05999999999999 144.7 C 108.05999999999999 144.85999999999999 108.05999999999999 145.08999999999997 108.05999999999999 145.41 L 107.87999999999998 153.03 C 107.87999999999998 153.45 107.80999999999999 153.49 107.41999999999999 153.49 L 105.58999999999999 153.49 C 105.24 153.49 105.14999999999999 153.42000000000002 105.14999999999999 153.17000000000002 C 105.14999999999999 153.14000000000001 105.14999999999999 153.10000000000002 105.14999999999999 153.03000000000003 L 105.8 138.54000000000002 C 105.82 138.15000000000003 105.86999999999999 138.08 106.25999999999999 138.08 L 108.47999999999999 138.08 C 108.82999999999998 138.08 108.86999999999999 138.13000000000002 108.99 138.45000000000002 L 110.78999999999999 144.11 C 110.9 144.53 111.13 145.52 111.38 146.7 z" stroke-linecap="round" />
</g>
		<g transform="matrix(1 0 0 1 3.83 68.52)"  >
<path style="stroke: none; stroke-width: 1; stroke-dasharray: none; stroke-linecap: butt; stroke-dashoffset: 0; stroke-linejoin: miter; stroke-miterlimit: 4; fill: rgb(26,26,24); fill-rule: nonzero; opacity: 1;" vector-effect="non-scaling-stroke"  transform=" translate(-128.41, -146.15)" d="M 133.48 140.75 C 133.41 141.07 133.34 141.12 132.98999999999998 141.12 L 129.73 141.12 L 129.73 153.39000000000001 C 129.73 153.8 129.67999999999998 153.85000000000002 129.26999999999998 153.85000000000002 L 127.06999999999998 153.85000000000002 C 126.64999999999998 153.85000000000002 126.60999999999999 153.8 126.60999999999999 153.39000000000001 L 126.60999999999999 141.12 L 123.78999999999999 141.12 C 123.38 141.12 123.30999999999999 141.07 123.30999999999999 140.66 L 123.30999999999999 138.9 C 123.30999999999999 138.51000000000002 123.37999999999998 138.44 123.78999999999999 138.44 L 133.06 138.44 C 133.41 138.44 133.52 138.51 133.52 138.7" stroke-linecap="round" />
</g>
		<g transform="matrix(1 0 0 1 19.16 68.52)"  >
<path style="stroke: none; stroke-width: 1; stroke-dasharray: none; stroke-linecap: butt; stroke-dashoffset: 0; stroke-linejoin: miter; stroke-miterlimit: 4; fill: rgb(26,26,24); fill-rule: nonzero; opacity: 1;" vector-effect="non-scaling-stroke"  transform=" translate(-143.74, -146.15)" d="M 147.78 140.52 C 147.71 140.82000000000002 147.59 140.89000000000001 147.29 140.89000000000001 L 142.48999999999998 140.89000000000001 L 142.48999999999998 144.59 L 146.23 144.59 C 146.61999999999998 144.59 146.69 144.63 146.69 145.05 L 146.69 146.57000000000002 C 146.69 146.96 146.62 147.03000000000003 146.23 147.03000000000003 L 142.48999999999998 147.03000000000003 L 142.48999999999998 151.40000000000003 L 147.62999999999997 151.40000000000003 C 148.04999999999995 151.40000000000003 148.08999999999997 151.47000000000003 148.08999999999997 151.86000000000004 L 148.08999999999997 153.39000000000004 C 148.08999999999997 153.80000000000004 148.04999999999998 153.85000000000005 147.62999999999997 153.85000000000005 L 139.85999999999996 153.85000000000005 C 139.43999999999997 153.85000000000005 139.39999999999995 153.80000000000004 139.39999999999995 153.39000000000004 L 139.39999999999995 138.9 C 139.39999999999995 138.51000000000002 139.44999999999996 138.44 139.85999999999996 138.44 L 147.36999999999995 138.44 C 147.71999999999994 138.44 147.80999999999995 138.51 147.80999999999995 138.69" stroke-linecap="round" />
</g>
		<g transform="matrix(1 0 0 1 34.09 68.2)"  >
<path style="stroke: none; stroke-width: 1; stroke-dasharray: none; stroke-linecap: butt; stroke-dashoffset: 0; stroke-linejoin: miter; stroke-miterlimit: 4; fill: rgb(26,26,24); fill-rule: nonzero; opacity: 1;" vector-effect="non-scaling-stroke"  transform=" translate(-158.67, -145.83)" d="M 163.36 139.62 L 162.44000000000003 141.28 C 162.35000000000002 141.42 162.30000000000004 141.44 162.21000000000004 141.44 C 162.14000000000004 141.44 162.07000000000005 141.41 162.00000000000003 141.37 C 161.91000000000003 141.33 161.77000000000004 141.21 161.54000000000002 141.02 C 160.92000000000002 140.56 160.32000000000002 140.33 159.72000000000003 140.33 C 157.99000000000004 140.33 157.13000000000002 141.92000000000002 157.13000000000002 145.16000000000003 C 157.13000000000002 149.37000000000003 158.05 151.31000000000003 160.04000000000002 151.31000000000003 C 160.78000000000003 151.31000000000003 161.29000000000002 151.10000000000002 162.05 150.50000000000003 C 162.14000000000001 150.46000000000004 162.21 150.41000000000003 162.26000000000002 150.41000000000003 C 162.35000000000002 150.41000000000003 162.42000000000002 150.46000000000004 162.49 150.60000000000002 L 163.39000000000001 152.17000000000002 C 163.41000000000003 152.24 163.44000000000003 152.33 163.44000000000003 152.4 C 163.44000000000003 152.61 163.28000000000003 152.81 162.82000000000002 153.07 C 161.85000000000002 153.67 160.93000000000004 153.92 159.70000000000002 153.92 C 155.94000000000003 153.92 153.9 151.03 153.9 145.64999999999998 C 153.9 142.82999999999998 154.45000000000002 140.92 155.68 139.49999999999997 C 156.70000000000002 138.33999999999997 158.04000000000002 137.73999999999998 159.56 137.73999999999998 C 160.81 137.73999999999998 162.12 138.2 163.14000000000001 139.01 C 163.3 139.17 163.42000000000002 139.31 163.42000000000002 139.42999999999998 C 163.4 139.47 163.38 139.55 163.36 139.62 z" stroke-linecap="round" />
</g>
		<g transform="matrix(1 0 0 1 48.81 68.52)"  >
<path style="stroke: none; stroke-width: 1; stroke-dasharray: none; stroke-linecap: butt; stroke-dashoffset: 0; stroke-linejoin: miter; stroke-miterlimit: 4; fill: rgb(26,26,24); fill-rule: nonzero; opacity: 1;" vector-effect="non-scaling-stroke"  transform=" translate(-173.4, -146.15)" d="M 171.31 144.73 L 175.5 144.73 L 175.5 138.91 C 175.5 138.52 175.54 138.45 175.96 138.45 L 178.11 138.45 C 178.52 138.45 178.57000000000002 138.51999999999998 178.57000000000002 138.91 L 178.57000000000002 153.4 C 178.57000000000002 153.81 178.52 153.86 178.11 153.86 L 175.96 153.86 C 175.54000000000002 153.86 175.5 153.81 175.5 153.4 L 175.5 147.04 L 171.31 147.04 L 171.31 153.4 C 171.31 153.81 171.24 153.86 170.85 153.86 L 168.68 153.86 C 168.26000000000002 153.86 168.22 153.81 168.22 153.4 L 168.22 138.9 C 168.22 138.51000000000002 168.27 138.44 168.68 138.44 L 170.85 138.44 C 171.23999999999998 138.44 171.31 138.51 171.31 138.9 L 171.31 144.73 z" stroke-linecap="round" />
</g>
		<g transform="matrix(1 0 0 1 66.23 68.52)"  >
<path style="stroke: none; stroke-width: 1; stroke-dasharray: none; stroke-linecap: butt; stroke-dashoffset: 0; stroke-linejoin: miter; stroke-miterlimit: 4; fill: rgb(26,26,24); fill-rule: nonzero; opacity: 1;" vector-effect="non-scaling-stroke"  transform=" translate(-190.81, -146.15)" d="M 193.45 148.88 L 193.42999999999998 148.1 C 193.42999999999998 147.34 193.42999999999998 146.82999999999998 193.42999999999998 146.07 L 193.42999999999998 138.91 C 193.42999999999998 138.52 193.48 138.45 193.89 138.45 L 195.57999999999998 138.45 C 195.98999999999998 138.45 196.04 138.5 196.04 138.91 L 196.04 153.4 C 196.04 153.81 195.98999999999998 153.86 195.57999999999998 153.86 L 194.11999999999998 153.86 C 193.71999999999997 153.86 193.67999999999998 153.81 193.46999999999997 153.42000000000002 L 189.58999999999997 146.14000000000001 C 188.77999999999997 144.64000000000001 188.54999999999998 144.13000000000002 188.15999999999997 142.98000000000002 L 188.17999999999998 143.74 C 188.2 144.41 188.21999999999997 144.69 188.21999999999997 145.29000000000002 L 188.21999999999997 145.70000000000002 L 188.21999999999997 153.4 C 188.21999999999997 153.81 188.14999999999998 153.86 187.75999999999996 153.86 L 186.04999999999995 153.86 C 185.63999999999996 153.86 185.58999999999995 153.81 185.58999999999995 153.4 L 185.58999999999995 138.9 C 185.58999999999995 138.51000000000002 185.63999999999996 138.44 186.04999999999995 138.44 L 187.82999999999996 138.44 C 188.21999999999994 138.44 188.26999999999995 138.46 188.44999999999996 138.82999999999998 L 192.00999999999996 145.44 C 192.5 146.34 192.99 147.54 193.45 148.88 z" stroke-linecap="round" />
</g>
		<g transform="matrix(1 0 0 1 79.35 68.52)"  >
<path style="stroke: none; stroke-width: 1; stroke-dasharray: none; stroke-linecap: butt; stroke-dashoffset: 0; stroke-linejoin: miter; stroke-miterlimit: 4; fill: rgb(26,26,24); fill-rule: nonzero; opacity: 1;" vector-effect="non-scaling-stroke"  transform=" translate(-203.94, -146.14)" d="M 205.02 138.44 L 202.85000000000002 138.44 C 202.43000000000004 138.44 202.39000000000001 138.51 202.39000000000001 138.9 L 202.39000000000001 140.65 L 202.39000000000001 140.65 L 202.39000000000001 151.63 L 202.4 153.39 C 202.4 153.79999999999998 202.44 153.85 202.86 153.85 L 204.97000000000003 153.85 C 205.39000000000001 153.85 205.43000000000004 153.79999999999998 205.43000000000004 153.39 L 205.48000000000005 138.89999999999998 C 205.48 138.51 205.43 138.44 205.02 138.44 z" stroke-linecap="round" />
</g>
		<g transform="matrix(1 0 0 1 92.81 68.52)"  >
<path style="stroke: none; stroke-width: 1; stroke-dasharray: none; stroke-linecap: butt; stroke-dashoffset: 0; stroke-linejoin: miter; stroke-miterlimit: 4; fill: rgb(26,26,24); fill-rule: nonzero; opacity: 1;" vector-effect="non-scaling-stroke"  transform=" translate(-217.39, -146.15)" d="M 214.66 145.23 L 219.35999999999999 138.7 C 219.49999999999997 138.51999999999998 219.58999999999997 138.45 219.70999999999998 138.45 C 219.77999999999997 138.45 222.33999999999997 138.45999999999998 222.33999999999997 138.45999999999998 C 222.56999999999996 138.57999999999998 222.64 138.64 222.64 138.76 C 222.64 138.85 222.6 138.95 222.48 139.07999999999998 L 217.32 145.96999999999997 L 223.06 153.17999999999998 C 223.18 153.31999999999996 223.22 153.42999999999998 223.22 153.49999999999997 C 223.22 153.63999999999996 223.2 153.68999999999997 222.92 153.82999999999998 C 222.92 153.82999999999998 219.95999999999998 153.82999999999998 219.94 153.85 L 219.92 153.85 C 219.82999999999998 153.85 219.76 153.78 219.61999999999998 153.59 L 214.65999999999997 147.08 L 214.65999999999997 153.39000000000001 C 214.65999999999997 153.8 214.58999999999997 153.85000000000002 214.19999999999996 153.85000000000002 L 212.02999999999997 153.85000000000002 C 211.60999999999999 153.85000000000002 211.56999999999996 153.8 211.56999999999996 153.39000000000001 L 211.56999999999996 138.9 C 211.56999999999996 138.51000000000002 211.60999999999996 138.44 212.02999999999997 138.44 L 214.19999999999996 138.44 C 214.58999999999995 138.44 214.65999999999997 138.51 214.65999999999997 138.9 L 214.65999999999997 145.23 z" stroke-linecap="round" />
</g>
		<g transform="matrix(1 0 0 1 -102.05 24.86)"  >
<path style="stroke: none; stroke-width: 1; stroke-dasharray: none; stroke-linecap: butt; stroke-dashoffset: 0; stroke-linejoin: miter; stroke-miterlimit: 4; fill: rgb(26,26,24); fill-rule: nonzero; opacity: 1;" vector-effect="non-scaling-stroke"  transform=" translate(-22.54, -102.49)" d="M 40.19 79.51 L 17.4 79.51 C 6.539999999999999 79.51 0.5599999999999987 84.80000000000001 0.5599999999999987 94.39 C 0.5599999999999987 100.76 3.4399999999999986 108.36 17.169999999999998 108.36 L 27.79 108.36 C 31.48 108.36 31.79 109.79 31.79 111.38 C 31.79 112.33999999999999 31.79 114.11999999999999 27.16 114.11999999999999 L 2.17 114.11999999999999 L 2.17 125.46999999999998 L 27.68 125.46999999999998 C 41.6 125.46999999999998 44.519999999999996 117.61999999999999 44.519999999999996 111.03999999999999 C 44.519999999999996 106.14999999999999 43.13999999999999 102.55999999999999 40.42999999999999 100.35999999999999 C 37.88999999999999 98.22999999999999 33.96999999999999 97.18999999999998 28.489999999999995 97.18999999999998 L 16.54 97.18999999999998 C 13.53 97.18999999999998 13.29 96.07999999999998 13.29 94.62999999999998 C 13.29 92.29999999999998 14.049999999999999 90.85999999999999 17.81 90.85999999999999 L 42.57 90.85999999999999 L 42.57 79.51 L 40.19 79.51 z" stroke-linecap="round" />
</g>
		<g transform="matrix(1 0 0 1 -58.85 24.86)"  >
<path style="stroke: none; stroke-width: 1; stroke-dasharray: none; stroke-linecap: butt; stroke-dashoffset: 0; stroke-linejoin: miter; stroke-miterlimit: 4; fill: rgb(26,26,24); fill-rule: nonzero; opacity: 1;" vector-effect="non-scaling-stroke"  transform=" translate(-65.74, -102.49)" d="M 81.58 79.51 L 69.07 79.51 C 59.209999999999994 79.51 47.46999999999999 83.63000000000001 47.46999999999999 103.23 C 47.46999999999999 111.62 49.78999999999999 117.54 54.56999999999999 121.34 C 56.68999999999999 123.07000000000001 58.989999999999995 124.22 61.58999999999999 124.83 C 63.09999999999999 125.26 65.43999999999998 125.47 68.85 125.47 L 84.00999999999999 125.47 L 84.00999999999999 114.00999999999999 L 68.62 114.00999999999999 C 65.48 114.05 63.39 113.42999999999999 62.39 112.16 C 61.53 111.11 60.55 108.8 60.55 103.52 C 60.55 98.61 61.209999999999994 95.13 62.51 93.17999999999999 C 63.73 91.41 65.67 90.57 68.57 90.57 L 83.96 90.57 L 83.96 79.51 L 81.58 79.51 z" stroke-linecap="round" />
</g>
		<g transform="matrix(1 0 0 1 -17.73 24.86)"  >
<path style="stroke: none; stroke-width: 1; stroke-dasharray: none; stroke-linecap: butt; stroke-dashoffset: 0; stroke-linejoin: miter; stroke-miterlimit: 4; fill: rgb(26,26,24); fill-rule: nonzero; opacity: 1;" vector-effect="non-scaling-stroke"  transform=" translate(-106.86, -102.49)" d="M 123.43 79.51 L 113.48 79.51 C 113.48 79.51 113.48 93.09 113.48 96.62 C 110.45 96.62 103.34 96.62 100.32000000000001 96.62 C 100.32000000000001 93.10000000000001 100.32000000000001 79.51 100.32000000000001 79.51 L 87.93 79.51 L 87.93 125.47 L 100.31 125.47 C 100.31 125.47 100.31 111.46 100.31 107.91 C 103.34 107.91 110.45 107.91 113.47 107.91 C 113.47 111.46 113.47 125.47 113.47 125.47 L 125.78999999999999 125.47 L 125.78999999999999 79.51 L 123.43 79.51 z" stroke-linecap="round" />
</g>
		<g transform="matrix(1 0 0 1 28.98 25)"  >
<path style="stroke: none; stroke-width: 1; stroke-dasharray: none; stroke-linecap: butt; stroke-dashoffset: 0; stroke-linejoin: miter; stroke-miterlimit: 4; fill: rgb(26,26,24); fill-rule: nonzero; opacity: 1;" vector-effect="non-scaling-stroke"  transform=" translate(-153.56, -102.63)" d="M 171.32 79.51 L 161.48 79.51 L 161.48 107.03 C 161.48 110.15 160.94 112.31 159.88 113.45 C 158.84 114.57000000000001 156.64 115.16 153.53 115.16 C 150.34 115.16 148.13 114.58 147.15 113.47999999999999 C 146.4 112.68999999999998 145.57 110.99999999999999 145.57 107.02 L 145.57 79.51 L 133.42 79.51 L 133.42 106.79 C 133.42 110.12 133.55999999999997 112.39 133.86999999999998 113.91000000000001 C 134.27999999999997 116.24000000000001 135.08999999999997 118.11000000000001 136.25999999999996 119.44000000000001 C 139.71999999999997 123.61000000000001 145.37999999999997 125.69000000000001 153.51999999999995 125.75000000000001 C 161.61999999999995 125.69000000000001 167.23999999999995 123.60000000000001 170.74999999999994 119.38000000000001 C 172.72999999999993 117.12 173.70999999999995 112.99000000000001 173.70999999999995 106.78000000000002 L 173.70999999999995 79.51 L 171.32 79.51 z" stroke-linecap="round" />
</g>
		<g transform="matrix(1 0 0 1 69.02 24.86)"  >
<path style="stroke: none; stroke-width: 1; stroke-dasharray: none; stroke-linecap: butt; stroke-dashoffset: 0; stroke-linejoin: miter; stroke-miterlimit: 4; fill: rgb(26,26,24); fill-rule: nonzero; opacity: 1;" vector-effect="non-scaling-stroke"  transform=" translate(-193.61, -102.48)" d="M 190.62 79.51 L 180.84 79.51 L 180.84 106.39 C 180.84 109.88 181.06 112.23 181.55 114.02 C 182.07000000000002 116.31 183.32000000000002 118.57 185.12 120.42999999999999 C 187.03 122.61 189.42000000000002 124.08 192.15 124.71 C 193.94 125.19999999999999 196.61 125.46 200.20000000000002 125.46 L 206.37 125.46 L 206.37 114.33999999999999 L 200.37 114.33999999999999 C 197.12 114.33999999999999 194.95000000000002 113.71999999999998 193.91 112.47999999999999 L 193.81 112.35999999999999 L 193.7 112.25999999999999 C 193.54999999999998 112.11999999999999 193.26 111.61999999999999 193.13 110.61999999999999 C 193.13 110.61999999999999 192.98 106.44 192.98 106.44 L 192.98 79.51 L 190.62 79.51 z M 190.5 115.78 C 190.48 115.76 190.46 115.72 190.44 115.69 C 190.39 115.64 190.32999999999998 115.61 190.29 115.56 L 190.5 115.78 z" stroke-linecap="round" />
</g>
		<g transform="matrix(1 0 0 1 104.32 24.86)"  >
<path style="stroke: none; stroke-width: 1; stroke-dasharray: none; stroke-linecap: butt; stroke-dashoffset: 0; stroke-linejoin: miter; stroke-miterlimit: 4; fill: rgb(26,26,24); fill-rule: nonzero; opacity: 1;" vector-effect="non-scaling-stroke"  transform=" translate(-228.9, -102.49)" d="M 246.24 79.51 L 209.25 79.51 L 209.25 91.03 C 209.25 91.03 224.75 91.03 231.42000000000002 91.03 C 226.07000000000002 96.85 209.19000000000003 115.23 209.19000000000003 115.23 L 209.19000000000003 125.47 L 248.61 125.47 L 248.61 113.66 C 248.61 113.66 233.31 113.66 226.72000000000003 113.66 C 231.97000000000003 107.85 248.61 89.44999999999999 248.61 89.44999999999999 L 248.61 79.50999999999999 L 246.24 79.50999999999999 z" stroke-linecap="round" />
</g>
		<g transform="matrix(1 0 0 1 0.78 -14.77)"  >
<path style="stroke: none; stroke-width: 1; stroke-dasharray: none; stroke-linecap: butt; stroke-dashoffset: 0; stroke-linejoin: miter; stroke-miterlimit: 4; fill: rgb(26,26,24); fill-rule: nonzero; opacity: 1;" vector-effect="non-scaling-stroke"  transform=" translate(-125.37, -62.86)" d="M 212.85 57.95 L 37.9 57.95 C 36.57 61.14 35.41 64.41 34.43 67.76 L 216.31 67.76 C 215.33 64.41 214.18 61.14 212.85 57.95 z" stroke-linecap="round" />
</g>
		<g transform="matrix(1 0 0 1 0.79 -32.93)"  >
<path style="stroke: none; stroke-width: 1; stroke-dasharray: none; stroke-linecap: butt; stroke-dashoffset: 0; stroke-linejoin: miter; stroke-miterlimit: 4; fill: rgb(26,26,24); fill-rule: nonzero; opacity: 1;" vector-effect="non-scaling-stroke"  transform=" translate(-125.38, -44.69)" d="M 206.33 45.15 C 205.47 43.73 204.56 42.339999999999996 203.63000000000002 40.98 L 47.12 40.98 C 46.19 42.349999999999994 45.279999999999994 43.739999999999995 44.419999999999995 45.15 C 43.769999999999996 46.22 43.13999999999999 47.31 42.529999999999994 48.41 L 208.22 48.41 C 207.61 47.31 206.98 46.22 206.33 45.15 z" stroke-linecap="round" />
</g>
		<g transform="matrix(1 0 0 1 0.79 -47.76)"  >
<path style="stroke: none; stroke-width: 1; stroke-dasharray: none; stroke-linecap: butt; stroke-dashoffset: 0; stroke-linejoin: miter; stroke-miterlimit: 4; fill: rgb(26,26,24); fill-rule: nonzero; opacity: 1;" vector-effect="non-scaling-stroke"  transform=" translate(-125.38, -29.87)" d="M 192.52 27.55 L 58.23 27.55 C 56.739999999999995 29.05 55.3 30.59 53.919999999999995 32.18 L 196.83999999999997 32.18 C 195.44 30.59 194.01 29.05 192.52 27.55 z" stroke-linecap="round" />
</g>
		<g transform="matrix(1 0 0 1 0.79 -59.16)"  >
<path style="stroke: none; stroke-width: 1; stroke-dasharray: none; stroke-linecap: butt; stroke-dashoffset: 0; stroke-linejoin: miter; stroke-miterlimit: 4; fill: rgb(26,26,24); fill-rule: nonzero; opacity: 1;" vector-effect="non-scaling-stroke"  transform=" translate(-125.37, -18.47)" d="M 179.94 16.93 L 70.8 16.93 C 69.39999999999999 17.919999999999998 68.02 18.95 66.67 20.009999999999998 L 184.07 20.009999999999998 C 182.73 18.95 181.35 17.93 179.94 16.93 z" stroke-linecap="round" />
</g>
		<g transform="matrix(1 0 0 1 0.79 -68.48)"  >
<path style="stroke: none; stroke-width: 1; stroke-dasharray: none; stroke-linecap: butt; stroke-dashoffset: 0; stroke-linejoin: miter; stroke-miterlimit: 4; fill: rgb(26,26,24); fill-rule: nonzero; opacity: 1;" vector-effect="non-scaling-stroke"  transform=" translate(-125.37, -9.14)" d="M 164.7 8.17 L 86.04 8.17 C 84.68 8.79 83.34 9.44 82.02000000000001 10.12 L 168.72000000000003 10.12 C 167.4 9.44 166.06 8.79 164.7 8.17 z" stroke-linecap="round" />
</g>
		<g transform="matrix(1 0 0 1 0.78 -75.82)"  >
<path style="stroke: none; stroke-width: 1; stroke-dasharray: none; stroke-linecap: butt; stroke-dashoffset: 0; stroke-linejoin: miter; stroke-miterlimit: 4; fill: rgb(26,26,24); fill-rule: nonzero; opacity: 1;" vector-effect="non-scaling-stroke"  transform=" translate(-125.37, -1.81)" d="M 142.12 1.12 L 108.62 1.12 C 106.46000000000001 1.5100000000000002 104.32000000000001 1.9700000000000002 102.21000000000001 2.5 L 148.52 2.5 C 146.42 1.97 144.28 1.5 142.12 1.12 z" stroke-linecap="round" />
</g>
</g>
</g>
</svg>